<svg width="18" height="19" viewBox="0 0 18 19" fill="none" xmlns="http://www.w3.org/2000/svg">
<path d="M6.00072 9.15686C6.00072 7.50007 7.3435 6.15662 9.00036 6.15662C10.6572 6.15662 12.0007 7.50007 12.0007 9.15686C12.0007 10.8137 10.6572 12.1571 9.00036 12.1571C7.3435 12.1571 6.00072 10.8137 6.00072 9.15686ZM4.37878 9.15686C4.37878 11.7093 6.44786 13.7783 9.00036 13.7783C11.5529 13.7783 13.6219 11.7093 13.6219 9.15686C13.6219 6.60446 11.5529 4.53547 9.00036 4.53547C6.44786 4.53547 4.37878 6.60446 4.37878 9.15686ZM12.7249 4.35223C12.7248 4.56583 12.788 4.77466 12.9066 4.95232C13.0252 5.12997 13.1939 5.26846 13.3912 5.35028C13.5885 5.43211 13.8057 5.45358 14.0152 5.41199C14.2247 5.3704 14.4172 5.26762 14.5683 5.11664C14.7194 4.96566 14.8223 4.77326 14.8641 4.56378C14.9059 4.3543 14.8846 4.13714 14.8029 3.93976C14.7212 3.74238 14.5829 3.57366 14.4053 3.45491C14.2277 3.33617 14.0189 3.27275 13.8053 3.27266H13.8049C13.5186 3.27279 13.244 3.38656 13.0415 3.58898C12.839 3.7914 12.7251 4.06591 12.7249 4.35223ZM5.36421 16.4826C4.48672 16.4427 4.00977 16.2965 3.69281 16.173C3.2726 16.0095 2.97278 15.8146 2.65755 15.4998C2.34233 15.1851 2.1472 14.8855 1.98433 14.4653C1.86077 14.1485 1.7146 13.6715 1.67472 12.794C1.63108 11.8453 1.62237 11.5604 1.62237 9.15693C1.62237 6.7535 1.6318 6.46932 1.67472 5.51985C1.71468 4.64239 1.86192 4.16625 1.98433 3.84852C2.14792 3.42832 2.34276 3.12852 2.65755 2.8133C2.97235 2.49808 3.27188 2.30296 3.69281 2.1401C4.00962 2.01655 4.48672 1.87039 5.36421 1.8305C6.31292 1.78687 6.59791 1.77816 9.00036 1.77816C11.4028 1.77816 11.6881 1.78759 12.6376 1.8305C13.5151 1.87046 13.9912 2.0177 14.309 2.1401C14.7292 2.30296 15.029 2.49852 15.3442 2.8133C15.6595 3.12808 15.8539 3.42832 16.0175 3.84852C16.141 4.16532 16.2872 4.64239 16.3271 5.51985C16.3707 6.46932 16.3794 6.7535 16.3794 9.15693C16.3794 11.5604 16.3707 11.8445 16.3271 12.794C16.2871 13.6715 16.1402 14.1484 16.0175 14.4653C15.8539 14.8855 15.659 15.1853 15.3442 15.4998C15.0294 15.8143 14.7292 16.0095 14.309 16.173C13.9922 16.2966 13.5151 16.4428 12.6376 16.4826C11.6889 16.5263 11.4039 16.535 9.00036 16.535C6.59683 16.535 6.31264 16.5263 5.36421 16.4826ZM5.28969 0.211364C4.33155 0.254996 3.67683 0.406916 3.10505 0.629396C2.5129 0.859148 2.01162 1.16738 1.51069 1.66749C1.00977 2.1676 0.702316 2.66966 0.472555 3.26179C0.250066 3.8339 0.0981399 4.48824 0.0545062 5.44634C0.0101524 6.40596 0 6.71275 0 9.15686C0 11.601 0.0101524 11.9078 0.0545062 12.8674C0.0981399 13.8256 0.250066 14.4798 0.472555 15.0519C0.702316 15.6437 1.00984 16.1463 1.51069 16.6462C2.01154 17.1461 2.5129 17.4539 3.10505 17.6843C3.67791 17.9068 4.33155 18.0587 5.28969 18.1024C6.24985 18.146 6.55615 18.1569 9.00036 18.1569C11.4446 18.1569 11.7514 18.1467 12.711 18.1024C13.6692 18.0587 14.3235 17.9068 14.8957 17.6843C15.4875 17.4539 15.9891 17.1463 16.49 16.6462C16.991 16.1461 17.2978 15.6437 17.5282 15.0519C17.7507 14.4798 17.9033 13.8255 17.9462 12.8674C17.9898 11.907 18 11.601 18 9.15686C18 6.71275 17.9898 6.40596 17.9462 5.44634C17.9026 4.48816 17.7507 3.83354 17.5282 3.26179C17.2978 2.67002 16.9902 2.1684 16.49 1.66749C15.9899 1.16659 15.4875 0.859148 14.8964 0.629396C14.3235 0.406916 13.6692 0.254276 12.7117 0.211364C11.7521 0.167732 11.4453 0.15686 9.00108 0.15686C6.55687 0.15686 6.24985 0.167012 5.28969 0.211364Z" fill="#313131"/>
</svg>
