<svg width="18" height="19" viewBox="0 0 18 19" fill="none" xmlns="http://www.w3.org/2000/svg">
<path d="M0 18.1569L1.2925 13.3592C0.250131 11.4902 -0.08104 9.30933 0.359758 7.21668C0.800556 5.12402 1.98376 3.25997 3.69224 1.9666C5.40072 0.673221 7.51988 0.0372692 9.66086 0.175441C11.8018 0.313612 13.821 1.21664 15.3479 2.71881C16.8747 4.22099 17.8068 6.22155 17.9732 8.35338C18.1395 10.4852 17.5289 12.6053 16.2534 14.3247C14.9779 16.0441 13.123 17.2473 11.0292 17.7137C8.9354 18.18 6.74307 17.8782 4.85452 16.8636L0 18.1569ZM5.08859 15.0683L5.38882 15.2458C6.75674 16.0539 8.35444 16.3883 9.93296 16.1969C11.5115 16.0055 12.9821 15.299 14.1157 14.1876C15.2494 13.0762 15.9822 11.6223 16.2002 10.0525C16.4182 8.48258 16.109 6.88494 15.3207 5.50851C14.5325 4.13207 13.3096 3.05416 11.8426 2.44274C10.3755 1.83133 8.74674 1.72076 7.21005 2.12826C5.67336 2.53577 4.31508 3.43846 3.34689 4.69566C2.3787 5.95286 1.85497 7.49396 1.85734 9.07878C1.85605 10.3929 2.22069 11.6815 2.91067 12.8013L3.09895 13.1107L2.37637 15.7884L5.08859 15.0683Z" fill="#313131"/>
<path fill-rule="evenodd" clip-rule="evenodd" d="M12.3753 10.3107C12.1993 10.1692 11.9932 10.0696 11.7728 10.0196C11.5523 9.96946 11.3233 9.97017 11.1032 10.0216C10.7724 10.1586 10.5587 10.6759 10.345 10.9345C10.2999 10.9965 10.2337 11.04 10.1587 11.0568C10.0838 11.0736 10.0052 11.0626 9.93788 11.0258C8.72696 10.5531 7.71196 9.68628 7.05773 8.5661C7.00193 8.49619 6.97552 8.40744 6.98407 8.31852C6.99261 8.2296 7.03543 8.14745 7.10353 8.08937C7.3419 7.85418 7.51691 7.56289 7.61239 7.24242C7.63359 6.88894 7.55233 6.53684 7.37831 6.22811C7.24378 5.79528 6.98775 5.40988 6.64047 5.11744C6.46135 5.03715 6.26275 5.01023 6.06862 5.03993C5.87449 5.06962 5.69313 5.15467 5.54642 5.2848C5.29172 5.50381 5.08956 5.77698 4.95482 6.08417C4.82008 6.39137 4.75619 6.72478 4.76787 7.05984C4.76865 7.248 4.79258 7.43536 4.83911 7.61772C4.95727 8.05585 5.13898 8.47444 5.3785 8.86024C5.5513 9.15578 5.73985 9.44188 5.94333 9.71734C6.60462 10.6221 7.43587 11.3903 8.39094 11.9792C8.87021 12.2785 9.38244 12.5219 9.91752 12.7045C10.4734 12.9556 11.0871 13.052 11.6934 12.9834C12.0389 12.9313 12.3663 12.7953 12.6467 12.5875C12.9271 12.3797 13.1519 12.1064 13.3014 11.7916C13.3893 11.6014 13.4159 11.3889 13.3778 11.183C13.2862 10.7621 12.7213 10.5136 12.3753 10.3107Z" fill="#313131"/>
</svg>
