<svg width="25" height="19" viewBox="0 0 25 19" fill="none" xmlns="http://www.w3.org/2000/svg">
<path fill-rule="evenodd" clip-rule="evenodd" d="M22.2677 0.69277C23.3455 0.991406 24.1927 1.86277 24.479 2.96731C25 4.97186 25 9.15686 25 9.15686C25 9.15686 25 13.3419 24.479 15.3464C24.1887 16.455 23.3416 17.3264 22.2677 17.621C20.319 18.1569 12.5 18.1569 12.5 18.1569C12.5 18.1569 4.68501 18.1569 2.73226 17.621C1.65447 17.3223 0.80735 16.451 0.520999 15.3464C0 13.3419 0 9.15686 0 9.15686C0 9.15686 0 4.97186 0.520999 2.96731C0.811327 1.85868 1.65845 0.987315 2.73226 0.69277C4.68501 0.15686 12.5 0.15686 12.5 0.15686C12.5 0.15686 20.319 0.15686 22.2677 0.69277ZM16.497 9.15686L10.0024 13.0146V5.29913L16.497 9.15686Z" fill="#313131"/>
</svg>
