<svg width="32" height="32" viewBox="0 0 32 32" fill="none" xmlns="http://www.w3.org/2000/svg">
<path d="M20.2385 14.9535C20.8165 14.9535 21.285 15.422 21.285 16C21.285 16.578 20.8165 17.0465 20.2385 17.0465H11.8664C11.2885 17.0465 10.8199 16.578 10.8199 16C10.8199 15.422 11.2885 14.9535 11.8664 14.9535H20.2385Z" fill="#523526"/>
<path fill-rule="evenodd" clip-rule="evenodd" d="M16.0525 1C24.3368 1 31.0525 7.71573 31.0525 16C31.0525 24.2843 24.3368 31 16.0525 31C7.76822 31 1.05249 24.2843 1.05249 16C1.05249 7.71573 7.76822 1 16.0525 1ZM28.9595 16C28.9595 8.87167 23.1808 3.09302 16.0525 3.09302C8.92416 3.09302 3.14551 8.87167 3.14551 16C3.14551 23.1283 8.92416 28.907 16.0525 28.907C23.1808 28.907 28.9595 23.1283 28.9595 16Z" fill="#523526"/>
<path d="M20.2385 14.9535C20.8165 14.9535 21.285 15.422 21.285 16C21.285 16.578 20.8165 17.0465 20.2385 17.0465H11.8664C11.2885 17.0465 10.8199 16.578 10.8199 16C10.8199 15.422 11.2885 14.9535 11.8664 14.9535H20.2385Z" stroke="#523526" stroke-linecap="round"/>
<path fill-rule="evenodd" clip-rule="evenodd" d="M16.0525 1C24.3368 1 31.0525 7.71573 31.0525 16C31.0525 24.2843 24.3368 31 16.0525 31C7.76822 31 1.05249 24.2843 1.05249 16C1.05249 7.71573 7.76822 1 16.0525 1ZM28.9595 16C28.9595 8.87167 23.1808 3.09302 16.0525 3.09302C8.92416 3.09302 3.14551 8.87167 3.14551 16C3.14551 23.1283 8.92416 28.907 16.0525 28.907C23.1808 28.907 28.9595 23.1283 28.9595 16Z" stroke="#523526" stroke-linecap="round"/>
</svg>
