<svg width="32" height="32" viewBox="0 0 32 32" fill="none" xmlns="http://www.w3.org/2000/svg">
<path d="M15.006 11.814C15.006 11.236 15.4745 10.7674 16.0525 10.7674C16.6305 10.7674 17.099 11.236 17.099 11.814V14.9535H20.2385C20.8165 14.9535 21.285 15.422 21.285 16C21.285 16.578 20.8165 17.0465 20.2385 17.0465H17.099V20.186C17.099 20.764 16.6305 21.2326 16.0525 21.2326C15.4745 21.2326 15.006 20.764 15.006 20.186V17.0465H11.8664C11.2885 17.0465 10.8199 16.578 10.8199 16C10.8199 15.422 11.2885 14.9535 11.8664 14.9535H15.006V11.814Z" fill="#523526"/>
<path fill-rule="evenodd" clip-rule="evenodd" d="M16.0525 1C24.3368 1 31.0525 7.71573 31.0525 16C31.0525 24.2843 24.3368 31 16.0525 31C7.76822 31 1.05249 24.2843 1.05249 16C1.05249 7.71573 7.76822 1 16.0525 1ZM28.9595 16C28.9595 8.87167 23.1808 3.09302 16.0525 3.09302C8.92416 3.09302 3.14552 8.87167 3.14552 16C3.14552 23.1283 8.92416 28.907 16.0525 28.907C23.1808 28.907 28.9595 23.1283 28.9595 16Z" fill="#523526"/>
<path d="M15.006 11.814C15.006 11.236 15.4745 10.7674 16.0525 10.7674C16.6305 10.7674 17.099 11.236 17.099 11.814V14.9535H20.2385C20.8165 14.9535 21.285 15.422 21.285 16C21.285 16.578 20.8165 17.0465 20.2385 17.0465H17.099V20.186C17.099 20.764 16.6305 21.2326 16.0525 21.2326C15.4745 21.2326 15.006 20.764 15.006 20.186V17.0465H11.8664C11.2885 17.0465 10.8199 16.578 10.8199 16C10.8199 15.422 11.2885 14.9535 11.8664 14.9535H15.006V11.814Z" stroke="#523526" stroke-linecap="round"/>
<path fill-rule="evenodd" clip-rule="evenodd" d="M16.0525 1C24.3368 1 31.0525 7.71573 31.0525 16C31.0525 24.2843 24.3368 31 16.0525 31C7.76822 31 1.05249 24.2843 1.05249 16C1.05249 7.71573 7.76822 1 16.0525 1ZM28.9595 16C28.9595 8.87167 23.1808 3.09302 16.0525 3.09302C8.92416 3.09302 3.14552 8.87167 3.14552 16C3.14552 23.1283 8.92416 28.907 16.0525 28.907C23.1808 28.907 28.9595 23.1283 28.9595 16Z" stroke="#523526" stroke-linecap="round"/>
</svg>
